<?xml version="1.0" encoding="UTF-8" standalone="no"?>
<!DOCTYPE svg PUBLIC "-//W3C//DTD SVG 1.1//EN" "http://www.w3.org/Graphics/SVG/1.1/DTD/svg11.dtd">
<svg xmlns="http://www.w3.org/2000/svg" version="1.1" viewBox="0 0 1000 1000">
<g stroke-width="2.00" fill="none" stroke-linecap="butt">
<path stroke="#87e8a2" vector-effect="non-scaling-stroke" d="
  M 999.99 40.02
  Q 985.89 41.78 972.50 46.42
  C 966.62 48.46 960.39 49.16 954.51 52.57
  C 951.63 54.23 948.36 54.69 945.42 56.26
  Q 940.40 58.95 935.42 61.71
  C 928.63 65.46 919.96 68.81 912.73 74.00
  Q 910.96 75.27 906.44 75.70
  Q 905.94 75.75 906.32 75.43
  Q 919.76 63.88 918.04 45.82
  C 916.98 34.75 912.36 26.56 900.71 25.58
  C 897.07 25.27 892.90 26.50 889.09 27.22
  C 882.52 28.45 875.60 28.41 868.83 28.92
  C 858.98 29.66 849.45 32.01 838.90 34.21
  Q 821.88 37.76 804.44 38.10
  C 791.74 38.35 780.86 41.90 769.16 46.47
  Q 765.02 48.09 761.11 48.67
  C 746.07 50.93 734.85 51.39 721.54 52.05
  C 705.84 52.82 695.74 54.88 682.20 60.47
  C 666.64 66.89 652.46 72.54 636.56 81.24
  Q 628.84 85.47 622.14 87.99
  Q 596.95 97.49 570.57 103.08
  Q 569.27 103.36 567.12 104.90
  C 563.90 107.19 559.62 108.08 556.82 110.32
  C 551.22 114.81 545.93 115.27 540.76 119.08
  C 535.27 123.14 530.95 122.69 527.66 129.89
  C 526.25 132.97 524.28 134.31 522.36 136.85
  C 518.46 141.98 514.90 144.43 515.14 151.83
  A 1.29 1.27 64.8 0 1 514.83 152.72
  Q 509.34 159.24 501.86 163.15
  C 495.84 166.30 492.96 170.45 495.07 177.54
  A 1.67 1.65 -44.7 0 1 495.06 178.50
  C 491.24 190.13 498.17 197.48 505.75 205.21"
/>
<path stroke="#dc9edd" vector-effect="non-scaling-stroke" d="
  M 505.75 205.21
  C 504.69 205.27 503.82 205.43 502.83 204.88
  C 495.52 200.83 490.44 201.63 480.57 202.36
  C 460.96 203.80 441.99 207.69 422.69 211.20
  C 402.75 214.83 382.96 221.57 365.32 226.63
  C 326.49 237.76 293.14 254.51 259.75 267.84
  Q 254.85 269.80 248.03 273.27
  Q 236.01 279.40 222.96 283.04
  C 219.05 284.13 214.53 287.50 211.67 288.15
  C 203.68 289.94 196.23 294.81 189.18 299.40
  C 187.30 300.62 185.86 302.54 184.23 303.73
  C 178.28 308.09 171.50 311.13 165.88 315.80
  C 158.35 322.05 150.26 327.06 141.74 333.78
  C 131.55 341.82 121.92 351.36 112.33 360.47
  C 110.04 362.65 107.83 365.53 105.31 367.91
  Q 100.41 372.51 99.76 373.17
  Q 91.42 381.55 81.85 388.53
  C 77.77 391.51 74.58 395.71 70.72 399.11
  Q 65.00 404.16 59.38 409.32
  C 55.63 412.78 52.65 417.21 49.05 421.12
  C 44.94 425.57 42.13 430.72 38.34 435.41
  C 30.28 445.41 21.40 458.50 13.90 470.67
  C 12.51 472.93 11.44 475.96 9.76 478.43
  C 6.08 483.83 3.39 489.45 0.00 494.94"
/>
<path stroke="#87e8a2" vector-effect="non-scaling-stroke" d="
  M 1000.00 328.31
  L 979.15 348.25
  Q 978.40 348.97 979.44 349.02
  C 984.53 349.25 988.30 351.96 992.82 354.20
  Q 998.66 357.10 1000.00 363.56"
/>
<path stroke="#87e8a2" vector-effect="non-scaling-stroke" d="
  M 1000.00 371.56
  C 997.50 379.78 991.19 383.40 983.98 387.39
  C 981.96 388.51 980.19 390.76 978.55 391.55
  C 964.44 398.33 948.43 402.46 933.39 407.19
  C 927.35 409.08 921.44 412.63 914.89 414.48
  Q 912.56 415.14 910.66 416.55
  C 904.95 420.82 899.35 421.82 894.04 424.78
  C 879.89 432.68 865.84 441.57 850.44 446.81
  Q 846.95 447.99 843.00 450.07
  C 837.63 452.88 831.85 454.23 826.62 457.09
  Q 817.02 462.35 806.25 464.79"
/>
<path stroke="#638780" vector-effect="non-scaling-stroke" d="
  M 806.25 464.79
  Q 799.59 466.38 792.91 467.85
  C 790.86 468.31 787.60 468.33 784.98 469.71
  Q 768.80 478.23 751.56 484.28
  Q 744.55 486.74 738.63 483.52
  C 732.01 479.93 726.86 477.48 728.41 468.28
  C 729.44 462.16 729.47 454.52 732.45 447.48
  C 734.28 443.17 733.92 439.25 736.71 435.01
  A 1.56 1.51 -29.0 0 0 736.97 434.16
  Q 736.93 425.87 738.44 417.70
  A 0.72 0.72 0.0 0 0 737.77 416.84
  C 729.61 416.39 721.97 410.42 715.70 405.65
  C 693.54 388.79 688.32 346.07 686.71 320.31
  A 0.99 0.96 17.0 0 0 686.32 319.60
  L 679.78 314.74
  Q 679.37 314.43 678.86 314.34
  Q 675.20 313.72 673.70 312.04
  C 670.41 308.37 666.10 304.98 663.11 301.97
  C 650.69 289.45 638.26 275.98 624.92 264.49
  C 621.26 261.34 618.15 257.36 613.83 255.12
  C 606.26 251.20 596.83 246.75 596.84 238.98
  Q 596.84 236.68 594.85 235.52
  Q 589.46 232.39 584.60 229.96
  C 578.33 226.83 562.92 230.34 555.96 231.62
  C 546.73 233.31 538.75 228.90 530.82 224.89
  C 521.52 220.18 513.36 212.31 505.75 205.21"
/>
<path stroke="#dc9edd" vector-effect="non-scaling-stroke" d="
  M 806.25 464.79
  Q 806.72 467.17 806.31 470.06
  Q 804.55 482.50 800.51 493.50
  Q 799.52 496.21 798.04 508.00
  A 1.45 1.40 -58.2 0 0 798.24 508.92
  C 800.75 512.88 800.90 516.36 799.00 520.96
  C 796.77 526.37 794.86 531.12 793.71 537.20
  Q 791.82 547.24 788.38 556.86
  C 785.85 563.95 784.75 571.41 781.82 578.53
  C 778.82 585.81 777.02 592.33 774.30 599.20
  C 771.41 606.50 769.79 614.21 765.33 621.48
  C 762.99 625.31 760.31 630.49 758.55 634.44
  C 756.52 638.99 753.61 642.88 751.50 647.24
  C 749.21 651.96 746.69 655.40 744.45 659.64
  C 735.51 676.52 725.99 693.04 717.18 710.01
  Q 715.81 712.66 713.56 714.88
  Q 706.95 721.43 701.22 728.76
  C 695.94 735.52 689.86 740.85 684.23 747.16
  Q 681.56 750.16 677.98 752.98
  C 672.38 757.40 667.77 762.75 662.14 766.84
  Q 652.58 773.78 649.97 776.48
  C 644.76 781.89 637.81 787.00 631.68 793.18
  C 626.39 798.52 620.20 801.67 615.09 807.59
  Q 613.45 809.50 611.31 810.72
  Q 601.84 816.13 594.56 824.23
  Q 592.75 826.25 590.44 827.64
  Q 583.84 831.61 578.26 836.90
  C 573.47 841.44 567.75 844.48 562.89 849.05
  Q 560.87 850.95 558.46 852.07
  C 551.34 855.39 545.92 859.58 539.91 863.84
  C 536.65 866.15 532.69 866.74 528.96 868.26
  Q 524.48 870.08 520.79 871.05
  C 511.33 873.53 502.90 877.75 493.40 880.07
  Q 490.73 880.73 486.23 882.36
  C 480.55 884.42 474.02 885.33 468.99 887.12
  C 459.90 890.33 450.68 894.66 442.16 897.64
  Q 434.64 900.27 427.15 902.96
  C 425.16 903.68 422.58 905.34 421.00 905.77
  Q 410.61 908.64 400.01 910.52
  C 395.86 911.25 391.02 913.66 386.50 914.78
  Q 378.57 916.74 371.03 919.88
  C 367.78 921.24 364.57 921.68 361.19 922.63
  C 356.95 923.81 352.74 923.43 348.50 924.24
  Q 339.10 926.05 328.86 928.93
  Q 325.18 929.96 321.01 930.24
  Q 311.83 930.85 302.87 932.89
  C 294.84 934.71 286.83 934.83 278.76 936.43
  Q 273.54 937.46 269.15 937.60
  Q 253.97 938.06 238.80 938.97
  Q 232.42 939.36 227.71 938.75
  C 213.39 936.89 199.74 932.99 184.57 929.43
  Q 167.40 925.39 149.74 924.26
  Q 143.42 923.86 116.91 918.26
  Q 111.83 917.19 106.52 915.06
  Q 95.97 910.82 87.51 908.20
  Q 83.75 907.04 78.23 906.61
  A 1.83 1.83 0.0 0 1 77.32 906.28
  C 64.92 897.47 51.49 890.19 39.39 881.10
  Q 27.33 872.04 14.80 863.65
  C 10.77 860.95 5.74 856.18 0.00 853.69"
/>
<path stroke="#5c1f5d" vector-effect="non-scaling-stroke" d="
  M 382.18 328.00
  C 383.35 330.23 383.58 332.90 384.39 334.96
  C 389.68 348.61 390.84 360.01 392.58 373.24
  C 394.02 384.19 396.55 394.44 399.13 405.01
  Q 400.15 409.17 401.73 411.09
  C 407.68 418.28 419.49 415.14 420.94 405.94
  Q 421.36 403.32 420.06 398.15
  Q 416.47 383.76 414.49 369.06
  C 413.57 362.27 409.96 356.20 409.64 349.59
  Q 409.16 339.60 404.97 330.43
  A 1.77 1.73 -54.7 0 1 404.82 329.48
  C 404.93 328.54 405.14 328.36 404.76 327.38
  Q 400.47 316.27 396.25 305.13
  C 395.10 302.08 393.59 296.74 389.26 297.46
  A 1.20 1.19 57.7 0 1 388.38 297.26
  C 381.75 292.50 376.21 296.03 371.68 301.43
  Q 356.32 319.76 353.69 323.94
  C 349.84 330.03 345.12 335.68 341.30 341.45
  C 337.32 347.47 332.54 353.41 328.90 359.09
  C 319.38 373.93 311.10 386.47 301.98 404.21
  C 301.05 406.02 300.59 408.50 299.52 410.94
  C 293.42 424.91 315.16 433.20 319.80 418.99
  C 321.32 414.35 324.35 410.92 326.16 406.66
  C 329.12 399.72 334.35 392.42 337.19 387.73
  C 345.88 373.41 356.44 360.20 365.32 347.08
  C 366.80 344.89 367.69 344.13 368.41 341.19
  Q 369.49 336.76 373.80 334.46
  A 1.58 1.58 0.0 0 0 374.47 333.79
  C 376.35 330.18 377.19 328.55 381.45 327.66
  A 0.67 0.66 69.5 0 1 382.18 328.00"
/>
<path stroke="#5c1f5d" vector-effect="non-scaling-stroke" d="
  M 574.59 397.02
  Q 576.19 401.67 577.60 406.36
  C 578.83 410.44 578.82 415.27 579.83 419.18
  Q 581.58 425.94 586.00 439.27
  C 586.75 441.52 588.29 443.05 588.84 445.42
  C 591.91 458.83 595.95 471.93 599.65 485.17
  C 603.91 500.41 625.72 494.66 620.34 481.35
  C 617.54 474.44 614.84 465.19 613.18 460.29
  C 607.73 444.13 603.03 427.75 597.18 411.79
  C 595.49 407.19 591.62 399.26 590.13 392.35
  C 589.35 388.74 586.90 386.30 586.08 382.42
  A 1.34 1.34 0.0 0 0 585.56 381.60
  Q 582.97 379.67 581.83 376.68
  A 1.18 1.17 2.1 0 0 581.23 376.04
  C 575.31 373.27 569.18 375.07 563.69 378.11
  C 562.85 378.58 561.10 378.60 560.54 379.05
  Q 548.60 388.64 534.83 395.36
  C 530.71 397.36 525.00 401.27 520.69 405.33
  C 515.85 409.90 511.75 412.91 506.66 419.01
  C 500.66 426.20 494.83 430.11 486.82 435.84
  C 476.73 443.06 485.14 458.54 497.93 454.41
  C 500.21 453.68 501.37 451.74 502.90 450.03
  C 505.84 446.76 510.78 445.44 513.88 442.62
  Q 523.95 433.44 539.99 416.72
  C 542.57 414.02 546.17 413.46 549.07 410.72
  Q 552.97 407.03 557.51 404.16
  C 561.81 401.44 568.56 393.53 573.98 396.31
  A 1.24 1.24 0.0 0 1 574.59 397.02"
/>
<path stroke="#5c1f5d" vector-effect="non-scaling-stroke" d="
  M 312.97 626.03
  C 315.60 630.00 320.00 632.79 323.71 635.71
  C 329.62 640.36 334.11 647.20 340.71 650.73
  Q 347.49 654.35 354.52 657.48
  C 359.07 659.50 364.06 660.54 368.96 662.20
  C 375.53 664.42 384.96 667.10 389.75 667.03
  C 399.32 666.87 410.24 668.37 419.46 665.94
  C 425.82 664.27 433.15 664.79 438.51 663.53
  C 455.51 659.54 473.38 653.59 488.04 644.04
  Q 511.87 628.51 528.91 605.55
  Q 532.73 600.39 534.44 595.73
  C 536.39 590.41 537.62 584.50 537.32 578.78
  C 537.12 574.99 536.95 571.83 537.16 567.61
  C 537.97 551.00 515.96 550.32 515.03 565.51
  C 514.73 570.45 516.02 580.16 514.00 586.50
  Q 510.37 597.90 501.30 605.59
  Q 494.56 611.31 494.02 611.81
  C 473.54 630.58 448.35 640.29 420.88 642.93
  Q 418.78 643.13 415.35 644.19
  C 410.57 645.66 406.27 644.83 402.28 644.86
  C 385.70 644.99 370.42 641.33 355.16 633.34
  C 346.49 628.80 341.40 619.73 332.55 615.09
  C 325.97 611.64 324.48 600.82 322.29 593.86
  C 320.62 588.56 320.21 583.85 319.28 578.66
  C 317.54 568.86 319.85 559.83 317.78 550.30
  C 316.58 544.74 317.20 537.00 309.06 536.62
  Q 305.43 536.45 301.80 536.04
  A 1.57 1.56 32.4 0 0 300.85 536.25
  C 292.26 541.32 295.63 549.03 295.36 556.82
  C 295.21 561.19 295.06 564.58 295.98 569.26
  C 296.77 573.28 296.28 576.97 297.20 580.95
  C 298.83 588.01 298.79 594.44 301.55 601.41
  C 302.96 604.97 302.39 607.09 305.02 610.34
  A 1.71 1.69 -67.5 0 1 305.38 611.23
  C 305.84 616.40 309.04 620.13 312.97 626.03"
/>
</g>
<path fill="#ffffff" d="
  M 0.00 0.00
  L 1000.00 0.00
  L 999.99 40.02
  Q 985.89 41.78 972.50 46.42
  C 966.62 48.46 960.39 49.16 954.51 52.57
  C 951.63 54.23 948.36 54.69 945.42 56.26
  Q 940.40 58.95 935.42 61.71
  C 928.63 65.46 919.96 68.81 912.73 74.00
  Q 910.96 75.27 906.44 75.70
  Q 905.94 75.75 906.32 75.43
  Q 919.76 63.88 918.04 45.82
  C 916.98 34.75 912.36 26.56 900.71 25.58
  C 897.07 25.27 892.90 26.50 889.09 27.22
  C 882.52 28.45 875.60 28.41 868.83 28.92
  C 858.98 29.66 849.45 32.01 838.90 34.21
  Q 821.88 37.76 804.44 38.10
  C 791.74 38.35 780.86 41.90 769.16 46.47
  Q 765.02 48.09 761.11 48.67
  C 746.07 50.93 734.85 51.39 721.54 52.05
  C 705.84 52.82 695.74 54.88 682.20 60.47
  C 666.64 66.89 652.46 72.54 636.56 81.24
  Q 628.84 85.47 622.14 87.99
  Q 596.95 97.49 570.57 103.08
  Q 569.27 103.36 567.12 104.90
  C 563.90 107.19 559.62 108.08 556.82 110.32
  C 551.22 114.81 545.93 115.27 540.76 119.08
  C 535.27 123.14 530.95 122.69 527.66 129.89
  C 526.25 132.97 524.28 134.31 522.36 136.85
  C 518.46 141.98 514.90 144.43 515.14 151.83
  A 1.29 1.27 64.8 0 1 514.83 152.72
  Q 509.34 159.24 501.86 163.15
  C 495.84 166.30 492.96 170.45 495.07 177.54
  A 1.67 1.65 -44.7 0 1 495.06 178.50
  C 491.24 190.13 498.17 197.48 505.75 205.21
  C 504.69 205.27 503.82 205.43 502.83 204.88
  C 495.52 200.83 490.44 201.63 480.57 202.36
  C 460.96 203.80 441.99 207.69 422.69 211.20
  C 402.75 214.83 382.96 221.57 365.32 226.63
  C 326.49 237.76 293.14 254.51 259.75 267.84
  Q 254.85 269.80 248.03 273.27
  Q 236.01 279.40 222.96 283.04
  C 219.05 284.13 214.53 287.50 211.67 288.15
  C 203.68 289.94 196.23 294.81 189.18 299.40
  C 187.30 300.62 185.86 302.54 184.23 303.73
  C 178.28 308.09 171.50 311.13 165.88 315.80
  C 158.35 322.05 150.26 327.06 141.74 333.78
  C 131.55 341.82 121.92 351.36 112.33 360.47
  C 110.04 362.65 107.83 365.53 105.31 367.91
  Q 100.41 372.51 99.76 373.17
  Q 91.42 381.55 81.85 388.53
  C 77.77 391.51 74.58 395.71 70.72 399.11
  Q 65.00 404.16 59.38 409.32
  C 55.63 412.78 52.65 417.21 49.05 421.12
  C 44.94 425.57 42.13 430.72 38.34 435.41
  C 30.28 445.41 21.40 458.50 13.90 470.67
  C 12.51 472.93 11.44 475.96 9.76 478.43
  C 6.08 483.83 3.39 489.45 0.00 494.94
  L 0.00 0.00
  Z"
/>
<path fill="#0ed145" d="
  M 999.99 40.02
  L 1000.00 328.31
  L 979.15 348.25
  Q 978.40 348.97 979.44 349.02
  C 984.53 349.25 988.30 351.96 992.82 354.20
  Q 998.66 357.10 1000.00 363.56
  L 1000.00 371.56
  C 997.50 379.78 991.19 383.40 983.98 387.39
  C 981.96 388.51 980.19 390.76 978.55 391.55
  C 964.44 398.33 948.43 402.46 933.39 407.19
  C 927.35 409.08 921.44 412.63 914.89 414.48
  Q 912.56 415.14 910.66 416.55
  C 904.95 420.82 899.35 421.82 894.04 424.78
  C 879.89 432.68 865.84 441.57 850.44 446.81
  Q 846.95 447.99 843.00 450.07
  C 837.63 452.88 831.85 454.23 826.62 457.09
  Q 817.02 462.35 806.25 464.79
  Q 799.59 466.38 792.91 467.85
  C 790.86 468.31 787.60 468.33 784.98 469.71
  Q 768.80 478.23 751.56 484.28
  Q 744.55 486.74 738.63 483.52
  C 732.01 479.93 726.86 477.48 728.41 468.28
  C 729.44 462.16 729.47 454.52 732.45 447.48
  C 734.28 443.17 733.92 439.25 736.71 435.01
  A 1.56 1.51 -29.0 0 0 736.97 434.16
  Q 736.93 425.87 738.44 417.70
  A 0.72 0.72 0.0 0 0 737.77 416.84
  C 729.61 416.39 721.97 410.42 715.70 405.65
  C 693.54 388.79 688.32 346.07 686.71 320.31
  A 0.99 0.96 17.0 0 0 686.32 319.60
  L 679.78 314.74
  Q 679.37 314.43 678.86 314.34
  Q 675.20 313.72 673.70 312.04
  C 670.41 308.37 666.10 304.98 663.11 301.97
  C 650.69 289.45 638.26 275.98 624.92 264.49
  C 621.26 261.34 618.15 257.36 613.83 255.12
  C 606.26 251.20 596.83 246.75 596.84 238.98
  Q 596.84 236.68 594.85 235.52
  Q 589.46 232.39 584.60 229.96
  C 578.33 226.83 562.92 230.34 555.96 231.62
  C 546.73 233.31 538.75 228.90 530.82 224.89
  C 521.52 220.18 513.36 212.31 505.75 205.21
  C 498.17 197.48 491.24 190.13 495.06 178.50
  A 1.67 1.65 -44.7 0 0 495.07 177.54
  C 492.96 170.45 495.84 166.30 501.86 163.15
  Q 509.34 159.24 514.83 152.72
  A 1.29 1.27 64.8 0 0 515.14 151.83
  C 514.90 144.43 518.46 141.98 522.36 136.85
  C 524.28 134.31 526.25 132.97 527.66 129.89
  C 530.95 122.69 535.27 123.14 540.76 119.08
  C 545.93 115.27 551.22 114.81 556.82 110.32
  C 559.62 108.08 563.90 107.19 567.12 104.90
  Q 569.27 103.36 570.57 103.08
  Q 596.95 97.49 622.14 87.99
  Q 628.84 85.47 636.56 81.24
  C 652.46 72.54 666.64 66.89 682.20 60.47
  C 695.74 54.88 705.84 52.82 721.54 52.05
  C 734.85 51.39 746.07 50.93 761.11 48.67
  Q 765.02 48.09 769.16 46.47
  C 780.86 41.90 791.74 38.35 804.44 38.10
  Q 821.88 37.76 838.90 34.21
  C 849.45 32.01 858.98 29.66 868.83 28.92
  C 875.60 28.41 882.52 28.45 889.09 27.22
  C 892.90 26.50 897.07 25.27 900.71 25.58
  C 912.36 26.56 916.98 34.75 918.04 45.82
  Q 919.76 63.88 906.32 75.43
  Q 905.94 75.75 906.44 75.70
  Q 910.96 75.27 912.73 74.00
  C 919.96 68.81 928.63 65.46 935.42 61.71
  Q 940.40 58.95 945.42 56.26
  C 948.36 54.69 951.63 54.23 954.51 52.57
  C 960.39 49.16 966.62 48.46 972.50 46.42
  Q 985.89 41.78 999.99 40.02
  Z"
/>
<path fill="#b83dba" d="
  M 505.75 205.21
  C 513.36 212.31 521.52 220.18 530.82 224.89
  C 538.75 228.90 546.73 233.31 555.96 231.62
  C 562.92 230.34 578.33 226.83 584.60 229.96
  Q 589.46 232.39 594.85 235.52
  Q 596.84 236.68 596.84 238.98
  C 596.83 246.75 606.26 251.20 613.83 255.12
  C 618.15 257.36 621.26 261.34 624.92 264.49
  C 638.26 275.98 650.69 289.45 663.11 301.97
  C 666.10 304.98 670.41 308.37 673.70 312.04
  Q 675.20 313.72 678.86 314.34
  Q 679.37 314.43 679.78 314.74
  L 686.32 319.60
  A 0.99 0.96 17.0 0 1 686.71 320.31
  C 688.32 346.07 693.54 388.79 715.70 405.65
  C 721.97 410.42 729.61 416.39 737.77 416.84
  A 0.72 0.72 0.0 0 1 738.44 417.70
  Q 736.93 425.87 736.97 434.16
  A 1.56 1.51 -29.0 0 1 736.71 435.01
  C 733.92 439.25 734.28 443.17 732.45 447.48
  C 729.47 454.52 729.44 462.16 728.41 468.28
  C 726.86 477.48 732.01 479.93 738.63 483.52
  Q 744.55 486.74 751.56 484.28
  Q 768.80 478.23 784.98 469.71
  C 787.60 468.33 790.86 468.31 792.91 467.85
  Q 799.59 466.38 806.25 464.79
  Q 806.72 467.17 806.31 470.06
  Q 804.55 482.50 800.51 493.50
  Q 799.52 496.21 798.04 508.00
  A 1.45 1.40 -58.2 0 0 798.24 508.92
  C 800.75 512.88 800.90 516.36 799.00 520.96
  C 796.77 526.37 794.86 531.12 793.71 537.20
  Q 791.82 547.24 788.38 556.86
  C 785.85 563.95 784.75 571.41 781.82 578.53
  C 778.82 585.81 777.02 592.33 774.30 599.20
  C 771.41 606.50 769.79 614.21 765.33 621.48
  C 762.99 625.31 760.31 630.49 758.55 634.44
  C 756.52 638.99 753.61 642.88 751.50 647.24
  C 749.21 651.96 746.69 655.40 744.45 659.64
  C 735.51 676.52 725.99 693.04 717.18 710.01
  Q 715.81 712.66 713.56 714.88
  Q 706.95 721.43 701.22 728.76
  C 695.94 735.52 689.86 740.85 684.23 747.16
  Q 681.56 750.16 677.98 752.98
  C 672.38 757.40 667.77 762.75 662.14 766.84
  Q 652.58 773.78 649.97 776.48
  C 644.76 781.89 637.81 787.00 631.68 793.18
  C 626.39 798.52 620.20 801.67 615.09 807.59
  Q 613.45 809.50 611.31 810.72
  Q 601.84 816.13 594.56 824.23
  Q 592.75 826.25 590.44 827.64
  Q 583.84 831.61 578.26 836.90
  C 573.47 841.44 567.75 844.48 562.89 849.05
  Q 560.87 850.95 558.46 852.07
  C 551.34 855.39 545.92 859.58 539.91 863.84
  C 536.65 866.15 532.69 866.74 528.96 868.26
  Q 524.48 870.08 520.79 871.05
  C 511.33 873.53 502.90 877.75 493.40 880.07
  Q 490.73 880.73 486.23 882.36
  C 480.55 884.42 474.02 885.33 468.99 887.12
  C 459.90 890.33 450.68 894.66 442.16 897.64
  Q 434.64 900.27 427.15 902.96
  C 425.16 903.68 422.58 905.34 421.00 905.77
  Q 410.61 908.64 400.01 910.52
  C 395.86 911.25 391.02 913.66 386.50 914.78
  Q 378.57 916.74 371.03 919.88
  C 367.78 921.24 364.57 921.68 361.19 922.63
  C 356.95 923.81 352.74 923.43 348.50 924.24
  Q 339.10 926.05 328.86 928.93
  Q 325.18 929.96 321.01 930.24
  Q 311.83 930.85 302.87 932.89
  C 294.84 934.71 286.83 934.83 278.76 936.43
  Q 273.54 937.46 269.15 937.60
  Q 253.97 938.06 238.80 938.97
  Q 232.42 939.36 227.71 938.75
  C 213.39 936.89 199.74 932.99 184.57 929.43
  Q 167.40 925.39 149.74 924.26
  Q 143.42 923.86 116.91 918.26
  Q 111.83 917.19 106.52 915.06
  Q 95.97 910.82 87.51 908.20
  Q 83.75 907.04 78.23 906.61
  A 1.83 1.83 0.0 0 1 77.32 906.28
  C 64.92 897.47 51.49 890.19 39.39 881.10
  Q 27.33 872.04 14.80 863.65
  C 10.77 860.95 5.74 856.18 0.00 853.69
  L 0.00 494.94
  C 3.39 489.45 6.08 483.83 9.76 478.43
  C 11.44 475.96 12.51 472.93 13.90 470.67
  C 21.40 458.50 30.28 445.41 38.34 435.41
  C 42.13 430.72 44.94 425.57 49.05 421.12
  C 52.65 417.21 55.63 412.78 59.38 409.32
  Q 65.00 404.16 70.72 399.11
  C 74.58 395.71 77.77 391.51 81.85 388.53
  Q 91.42 381.55 99.76 373.17
  Q 100.41 372.51 105.31 367.91
  C 107.83 365.53 110.04 362.65 112.33 360.47
  C 121.92 351.36 131.55 341.82 141.74 333.78
  C 150.26 327.06 158.35 322.05 165.88 315.80
  C 171.50 311.13 178.28 308.09 184.23 303.73
  C 185.86 302.54 187.30 300.62 189.18 299.40
  C 196.23 294.81 203.68 289.94 211.67 288.15
  C 214.53 287.50 219.05 284.13 222.96 283.04
  Q 236.01 279.40 248.03 273.27
  Q 254.85 269.80 259.75 267.84
  C 293.14 254.51 326.49 237.76 365.32 226.63
  C 382.96 221.57 402.75 214.83 422.69 211.20
  C 441.99 207.69 460.96 203.80 480.57 202.36
  C 490.44 201.63 495.52 200.83 502.83 204.88
  C 503.82 205.43 504.69 205.27 505.75 205.21
  Z
  M 382.18 328.00
  C 383.35 330.23 383.58 332.90 384.39 334.96
  C 389.68 348.61 390.84 360.01 392.58 373.24
  C 394.02 384.19 396.55 394.44 399.13 405.01
  Q 400.15 409.17 401.73 411.09
  C 407.68 418.28 419.49 415.14 420.94 405.94
  Q 421.36 403.32 420.06 398.15
  Q 416.47 383.76 414.49 369.06
  C 413.57 362.27 409.96 356.20 409.64 349.59
  Q 409.16 339.60 404.97 330.43
  A 1.77 1.73 -54.7 0 1 404.82 329.48
  C 404.93 328.54 405.14 328.36 404.76 327.38
  Q 400.47 316.27 396.25 305.13
  C 395.10 302.08 393.59 296.74 389.26 297.46
  A 1.20 1.19 57.7 0 1 388.38 297.26
  C 381.75 292.50 376.21 296.03 371.68 301.43
  Q 356.32 319.76 353.69 323.94
  C 349.84 330.03 345.12 335.68 341.30 341.45
  C 337.32 347.47 332.54 353.41 328.90 359.09
  C 319.38 373.93 311.10 386.47 301.98 404.21
  C 301.05 406.02 300.59 408.50 299.52 410.94
  C 293.42 424.91 315.16 433.20 319.80 418.99
  C 321.32 414.35 324.35 410.92 326.16 406.66
  C 329.12 399.72 334.35 392.42 337.19 387.73
  C 345.88 373.41 356.44 360.20 365.32 347.08
  C 366.80 344.89 367.69 344.13 368.41 341.19
  Q 369.49 336.76 373.80 334.46
  A 1.58 1.58 0.0 0 0 374.47 333.79
  C 376.35 330.18 377.19 328.55 381.45 327.66
  A 0.67 0.66 69.5 0 1 382.18 328.00
  Z
  M 574.59 397.02
  Q 576.19 401.67 577.60 406.36
  C 578.83 410.44 578.82 415.27 579.83 419.18
  Q 581.58 425.94 586.00 439.27
  C 586.75 441.52 588.29 443.05 588.84 445.42
  C 591.91 458.83 595.95 471.93 599.65 485.17
  C 603.91 500.41 625.72 494.66 620.34 481.35
  C 617.54 474.44 614.84 465.19 613.18 460.29
  C 607.73 444.13 603.03 427.75 597.18 411.79
  C 595.49 407.19 591.62 399.26 590.13 392.35
  C 589.35 388.74 586.90 386.30 586.08 382.42
  A 1.34 1.34 0.0 0 0 585.56 381.60
  Q 582.97 379.67 581.83 376.68
  A 1.18 1.17 2.1 0 0 581.23 376.04
  C 575.31 373.27 569.18 375.07 563.69 378.11
  C 562.85 378.58 561.10 378.60 560.54 379.05
  Q 548.60 388.64 534.83 395.36
  C 530.71 397.36 525.00 401.27 520.69 405.33
  C 515.85 409.90 511.75 412.91 506.66 419.01
  C 500.66 426.20 494.83 430.11 486.82 435.84
  C 476.73 443.06 485.14 458.54 497.93 454.41
  C 500.21 453.68 501.37 451.74 502.90 450.03
  C 505.84 446.76 510.78 445.44 513.88 442.62
  Q 523.95 433.44 539.99 416.72
  C 542.57 414.02 546.17 413.46 549.07 410.72
  Q 552.97 407.03 557.51 404.16
  C 561.81 401.44 568.56 393.53 573.98 396.31
  A 1.24 1.24 0.0 0 1 574.59 397.02
  Z
  M 312.97 626.03
  C 315.60 630.00 320.00 632.79 323.71 635.71
  C 329.62 640.36 334.11 647.20 340.71 650.73
  Q 347.49 654.35 354.52 657.48
  C 359.07 659.50 364.06 660.54 368.96 662.20
  C 375.53 664.42 384.96 667.10 389.75 667.03
  C 399.32 666.87 410.24 668.37 419.46 665.94
  C 425.82 664.27 433.15 664.79 438.51 663.53
  C 455.51 659.54 473.38 653.59 488.04 644.04
  Q 511.87 628.51 528.91 605.55
  Q 532.73 600.39 534.44 595.73
  C 536.39 590.41 537.62 584.50 537.32 578.78
  C 537.12 574.99 536.95 571.83 537.16 567.61
  C 537.97 551.00 515.96 550.32 515.03 565.51
  C 514.73 570.45 516.02 580.16 514.00 586.50
  Q 510.37 597.90 501.30 605.59
  Q 494.56 611.31 494.02 611.81
  C 473.54 630.58 448.35 640.29 420.88 642.93
  Q 418.78 643.13 415.35 644.19
  C 410.57 645.66 406.27 644.83 402.28 644.86
  C 385.70 644.99 370.42 641.33 355.16 633.34
  C 346.49 628.80 341.40 619.73 332.55 615.09
  C 325.97 611.64 324.48 600.82 322.29 593.86
  C 320.62 588.56 320.21 583.85 319.28 578.66
  C 317.54 568.86 319.85 559.83 317.78 550.30
  C 316.58 544.74 317.20 537.00 309.06 536.62
  Q 305.43 536.45 301.80 536.04
  A 1.57 1.56 32.4 0 0 300.85 536.25
  C 292.26 541.32 295.63 549.03 295.36 556.82
  C 295.21 561.19 295.06 564.58 295.98 569.26
  C 296.77 573.28 296.28 576.97 297.20 580.95
  C 298.83 588.01 298.79 594.44 301.55 601.41
  C 302.96 604.97 302.39 607.09 305.02 610.34
  A 1.71 1.69 -67.5 0 1 305.38 611.23
  C 305.84 616.40 309.04 620.13 312.97 626.03
  Z"
/>
<path fill="#000000" d="
  M 381.45 327.66
  C 377.19 328.55 376.35 330.18 374.47 333.79
  A 1.58 1.58 0.0 0 1 373.80 334.46
  Q 369.49 336.76 368.41 341.19
  C 367.69 344.13 366.80 344.89 365.32 347.08
  C 356.44 360.20 345.88 373.41 337.19 387.73
  C 334.35 392.42 329.12 399.72 326.16 406.66
  C 324.35 410.92 321.32 414.35 319.80 418.99
  C 315.16 433.20 293.42 424.91 299.52 410.94
  C 300.59 408.50 301.05 406.02 301.98 404.21
  C 311.10 386.47 319.38 373.93 328.90 359.09
  C 332.54 353.41 337.32 347.47 341.30 341.45
  C 345.12 335.68 349.84 330.03 353.69 323.94
  Q 356.32 319.76 371.68 301.43
  C 376.21 296.03 381.75 292.50 388.38 297.26
  A 1.20 1.19 57.7 0 0 389.26 297.46
  C 393.59 296.74 395.10 302.08 396.25 305.13
  Q 400.47 316.27 404.76 327.38
  C 405.14 328.36 404.93 328.54 404.82 329.48
  A 1.77 1.73 -54.7 0 0 404.97 330.43
  Q 409.16 339.60 409.64 349.59
  C 409.96 356.20 413.57 362.27 414.49 369.06
  Q 416.47 383.76 420.06 398.15
  Q 421.36 403.32 420.94 405.94
  C 419.49 415.14 407.68 418.28 401.73 411.09
  Q 400.15 409.17 399.13 405.01
  C 396.55 394.44 394.02 384.19 392.58 373.24
  C 390.84 360.01 389.68 348.61 384.39 334.96
  C 383.58 332.90 383.35 330.23 382.18 328.00
  A 0.67 0.66 69.5 0 0 381.45 327.66
  Z"
/>
<path fill="#ffffff" d="
  M 1000.00 328.31
  L 1000.00 363.56
  Q 998.66 357.10 992.82 354.20
  C 988.30 351.96 984.53 349.25 979.44 349.02
  Q 978.40 348.97 979.15 348.25
  L 1000.00 328.31
  Z"
/>
<path fill="#ffffff" d="
  M 1000.00 371.56
  L 1000.00 1000.00
  L 0.00 1000.00
  L 0.00 853.69
  C 5.74 856.18 10.77 860.95 14.80 863.65
  Q 27.33 872.04 39.39 881.10
  C 51.49 890.19 64.92 897.47 77.32 906.28
  A 1.83 1.83 0.0 0 0 78.23 906.61
  Q 83.75 907.04 87.51 908.20
  Q 95.97 910.82 106.52 915.06
  Q 111.83 917.19 116.91 918.26
  Q 143.42 923.86 149.74 924.26
  Q 167.40 925.39 184.57 929.43
  C 199.74 932.99 213.39 936.89 227.71 938.75
  Q 232.42 939.36 238.80 938.97
  Q 253.97 938.06 269.15 937.60
  Q 273.54 937.46 278.76 936.43
  C 286.83 934.83 294.84 934.71 302.87 932.89
  Q 311.83 930.85 321.01 930.24
  Q 325.18 929.96 328.86 928.93
  Q 339.10 926.05 348.50 924.24
  C 352.74 923.43 356.95 923.81 361.19 922.63
  C 364.57 921.68 367.78 921.24 371.03 919.88
  Q 378.57 916.74 386.50 914.78
  C 391.02 913.66 395.86 911.25 400.01 910.52
  Q 410.61 908.64 421.00 905.77
  C 422.58 905.34 425.16 903.68 427.15 902.96
  Q 434.64 900.27 442.16 897.64
  C 450.68 894.66 459.90 890.33 468.99 887.12
  C 474.02 885.33 480.55 884.42 486.23 882.36
  Q 490.73 880.73 493.40 880.07
  C 502.90 877.75 511.33 873.53 520.79 871.05
  Q 524.48 870.08 528.96 868.26
  C 532.69 866.74 536.65 866.15 539.91 863.84
  C 545.92 859.58 551.34 855.39 558.46 852.07
  Q 560.87 850.95 562.89 849.05
  C 567.75 844.48 573.47 841.44 578.26 836.90
  Q 583.84 831.61 590.44 827.64
  Q 592.75 826.25 594.56 824.23
  Q 601.84 816.13 611.31 810.72
  Q 613.45 809.50 615.09 807.59
  C 620.20 801.67 626.39 798.52 631.68 793.18
  C 637.81 787.00 644.76 781.89 649.97 776.48
  Q 652.58 773.78 662.14 766.84
  C 667.77 762.75 672.38 757.40 677.98 752.98
  Q 681.56 750.16 684.23 747.16
  C 689.86 740.85 695.94 735.52 701.22 728.76
  Q 706.95 721.43 713.56 714.88
  Q 715.81 712.66 717.18 710.01
  C 725.99 693.04 735.51 676.52 744.45 659.64
  C 746.69 655.40 749.21 651.96 751.50 647.24
  C 753.61 642.88 756.52 638.99 758.55 634.44
  C 760.31 630.49 762.99 625.31 765.33 621.48
  C 769.79 614.21 771.41 606.50 774.30 599.20
  C 777.02 592.33 778.82 585.81 781.82 578.53
  C 784.75 571.41 785.85 563.95 788.38 556.86
  Q 791.82 547.24 793.71 537.20
  C 794.86 531.12 796.77 526.37 799.00 520.96
  C 800.90 516.36 800.75 512.88 798.24 508.92
  A 1.45 1.40 -58.2 0 1 798.04 508.00
  Q 799.52 496.21 800.51 493.50
  Q 804.55 482.50 806.31 470.06
  Q 806.72 467.17 806.25 464.79
  Q 817.02 462.35 826.62 457.09
  C 831.85 454.23 837.63 452.88 843.00 450.07
  Q 846.95 447.99 850.44 446.81
  C 865.84 441.57 879.89 432.68 894.04 424.78
  C 899.35 421.82 904.95 420.82 910.66 416.55
  Q 912.56 415.14 914.89 414.48
  C 921.44 412.63 927.35 409.08 933.39 407.19
  C 948.43 402.46 964.44 398.33 978.55 391.55
  C 980.19 390.76 981.96 388.51 983.98 387.39
  C 991.19 383.40 997.50 379.78 1000.00 371.56
  Z"
/>
<path fill="#000000" d="
  M 573.98 396.31
  C 568.56 393.53 561.81 401.44 557.51 404.16
  Q 552.97 407.03 549.07 410.72
  C 546.17 413.46 542.57 414.02 539.99 416.72
  Q 523.95 433.44 513.88 442.62
  C 510.78 445.44 505.84 446.76 502.90 450.03
  C 501.37 451.74 500.21 453.68 497.93 454.41
  C 485.14 458.54 476.73 443.06 486.82 435.84
  C 494.83 430.11 500.66 426.20 506.66 419.01
  C 511.75 412.91 515.85 409.90 520.69 405.33
  C 525.00 401.27 530.71 397.36 534.83 395.36
  Q 548.60 388.64 560.54 379.05
  C 561.10 378.60 562.85 378.58 563.69 378.11
  C 569.18 375.07 575.31 373.27 581.23 376.04
  A 1.18 1.17 2.1 0 1 581.83 376.68
  Q 582.97 379.67 585.56 381.60
  A 1.34 1.34 0.0 0 1 586.08 382.42
  C 586.90 386.30 589.35 388.74 590.13 392.35
  C 591.62 399.26 595.49 407.19 597.18 411.79
  C 603.03 427.75 607.73 444.13 613.18 460.29
  C 614.84 465.19 617.54 474.44 620.34 481.35
  C 625.72 494.66 603.91 500.41 599.65 485.17
  C 595.95 471.93 591.91 458.83 588.84 445.42
  C 588.29 443.05 586.75 441.52 586.00 439.27
  Q 581.58 425.94 579.83 419.18
  C 578.82 415.27 578.83 410.44 577.60 406.36
  Q 576.19 401.67 574.59 397.02
  A 1.24 1.24 0.0 0 0 573.98 396.31
  Z"
/>
<path fill="#000000" d="
  M 323.71 635.71
  C 320.00 632.79 315.60 630.00 312.97 626.03
  C 309.04 620.13 305.84 616.40 305.38 611.23
  A 1.71 1.69 -67.5 0 0 305.02 610.34
  C 302.39 607.09 302.96 604.97 301.55 601.41
  C 298.79 594.44 298.83 588.01 297.20 580.95
  C 296.28 576.97 296.77 573.28 295.98 569.26
  C 295.06 564.58 295.21 561.19 295.36 556.82
  C 295.63 549.03 292.26 541.32 300.85 536.25
  A 1.57 1.56 32.4 0 1 301.80 536.04
  Q 305.43 536.45 309.06 536.62
  C 317.20 537.00 316.58 544.74 317.78 550.30
  C 319.85 559.83 317.54 568.86 319.28 578.66
  C 320.21 583.85 320.62 588.56 322.29 593.86
  C 324.48 600.82 325.97 611.64 332.55 615.09
  C 341.40 619.73 346.49 628.80 355.16 633.34
  C 370.42 641.33 385.70 644.99 402.28 644.86
  C 406.27 644.83 410.57 645.66 415.35 644.19
  Q 418.78 643.13 420.88 642.93
  C 448.35 640.29 473.54 630.58 494.02 611.81
  Q 494.56 611.31 501.30 605.59
  Q 510.37 597.90 514.00 586.50
  C 516.02 580.16 514.73 570.45 515.03 565.51
  C 515.96 550.32 537.97 551.00 537.16 567.61
  C 536.95 571.83 537.12 574.99 537.32 578.78
  C 537.62 584.50 536.39 590.41 534.44 595.73
  Q 532.73 600.39 528.91 605.55
  Q 511.87 628.51 488.04 644.04
  C 473.38 653.59 455.51 659.54 438.51 663.53
  C 433.15 664.79 425.82 664.27 419.46 665.94
  C 410.24 668.37 399.32 666.87 389.75 667.03
  C 384.96 667.10 375.53 664.42 368.96 662.20
  C 364.06 660.54 359.07 659.50 354.52 657.48
  Q 347.49 654.35 340.71 650.73
  C 334.11 647.20 329.62 640.36 323.71 635.71
  Z"
/>
</svg>
